<?xml version="1.0" encoding="utf-8"?>
<!-- Generator: Adobe Illustrator 27.0.0, SVG Export Plug-In . SVG Version: 6.00 Build 0)  -->
<svg version="1.1" xmlns="http://www.w3.org/2000/svg" xmlns:xlink="http://www.w3.org/1999/xlink" x="0px" y="0px"
	 viewBox="0 0 590 132.3" style="enable-background:new 0 0 590 132.3;" xml:space="preserve">
<style type="text/css">
	.st0{opacity:0.1804;fill-rule:evenodd;clip-rule:evenodd;fill:#2DCAFB;}
	.st1{opacity:0.6784;fill-rule:evenodd;clip-rule:evenodd;fill:#4EAAE3;}
	.st2{fill-rule:evenodd;clip-rule:evenodd;fill:#FFFFFF;}
	.st3{opacity:0.6627;fill-rule:evenodd;clip-rule:evenodd;fill:#FFFFFF;}
	.st4{opacity:0.7294;fill-rule:evenodd;clip-rule:evenodd;fill:#6FABD4;}
	.st5{fill-rule:evenodd;clip-rule:evenodd;fill:#73B2DA;}
	.st6{fill-rule:evenodd;clip-rule:evenodd;fill:#7EC1EA;}
	.st7{fill:#4EAAE3;}
	.st8{font-family:'Mukta-SemiBold';}
	.st9{font-size:100px;}
	.st10{fill-rule:evenodd;clip-rule:evenodd;fill:#4DAAE3;}
	.st11{fill:#AFDAF3;}
	.st12{font-family:'Mukta-Regular';}
	.st13{fill:#4DAAE3;}
</style>
<g id="Layer_2">
</g>
<g id="Layer_1">
	<circle class="st0" cx="74.8" cy="71.6" r="50"/>
	<circle class="st1" cx="69" cy="64.4" r="50.2"/>
	<polygon class="st2" points="96.7,22 85,29.6 86.8,16.8 	"/>
	<polygon class="st3" points="40.1,73.4 82.3,37.6 80.8,86.5 	"/>
	<polygon class="st4" points="87,42.9 71.3,73.6 86,93.6 	"/>
	<polygon class="st2" points="82.9,38.3 67.2,68.8 81.8,88.8 	"/>
	<polygon class="st5" points="36.7,75.1 67.8,67.5 84.8,92.1 	"/>
	<polygon class="st6" points="35,82.5 66.1,74.8 83.1,99.5 	"/>
	<text transform="matrix(1 0 0 1 199.7418 99.0088)" class="st7 st8 st9">rk</text>
	<polygon class="st10" points="139,99 167.9,19.5 199,99 	"/>
	<polygon class="st2" points="149.9,99.4 167.9,50 187,99 	"/>
	<text transform="matrix(1 0 0 1 300.4519 99.5088)" class="st11 st12 st9">Health</text>
	<rect x="153.5" y="73" class="st13" width="31.5" height="9"/>
	<path class="st2" d="M151.5,28c0-7.5,7.3-13.5,16.2-13.5c9,0,16.2,6,16.2,13.5c-6.7-7.5-19.5-9-28.4-3.4
		C154,25.6,152.6,26.7,151.5,28L151.5,28z"/>
</g>
</svg>
